<svg width="44" height="44" viewBox="0 0 44 44" fill="none" xmlns="http://www.w3.org/2000/svg">
<g id="Frame 1171275192">
<g id="Group 11">
<path id="Vector" fill-rule="evenodd" clip-rule="evenodd" d="M21.0404 8.12663C21.6658 7.95779 22.3346 7.95779 22.96 8.12663L27.8591 9.44865C30.4141 10.1381 32.8406 11.1516 35.0617 12.457C36.7909 13.4723 35.9722 15.8384 33.8919 15.8384H10.1085C8.02816 15.8384 7.20947 13.4723 8.9371 12.457C11.1586 11.151 13.5857 10.137 16.1413 9.44721L21.0404 8.12663ZM22.2381 10.1917C22.0831 10.1496 21.9173 10.1496 21.7623 10.1917L16.8649 11.5138C14.9286 12.0358 13.072 12.7626 11.3358 13.6783H32.6646C30.9284 12.7626 29.0718 12.0358 27.1355 11.5138L22.2365 10.1917H22.2381Z" fill="black"/>
<path id="Vector_2" d="M9.28491 34.9199C9.28491 34.6335 9.41455 34.3587 9.64532 34.1562C9.87609 33.9536 10.1891 33.8398 10.5154 33.8398H33.485C33.8113 33.8398 34.1243 33.9536 34.3551 34.1562C34.5858 34.3587 34.7155 34.6335 34.7155 34.9199C34.7155 35.2064 34.5858 35.4811 34.3551 35.6837C34.1243 35.8862 33.8113 36 33.485 36H10.5154C10.1891 36 9.87609 35.8862 9.64532 35.6837C9.41455 35.4811 9.28491 35.2064 9.28491 34.9199ZM12.5663 29.1595C12.5663 29.4459 12.6959 29.7207 12.9267 29.9232C13.1574 30.1258 13.4704 30.2396 13.7968 30.2396C14.1231 30.2396 14.4361 30.1258 14.6669 29.9232C14.8977 29.7207 15.0273 29.4459 15.0273 29.1595V20.5188C15.0273 20.2323 14.8977 19.9576 14.6669 19.7551C14.4361 19.5525 14.1231 19.4387 13.7968 19.4387C13.4704 19.4387 13.1574 19.5525 12.9267 19.7551C12.6959 19.9576 12.5663 20.2323 12.5663 20.5188V29.1595ZM22.0002 30.2396C21.6738 30.2396 21.3609 30.1258 21.1301 29.9232C20.8993 29.7207 20.7697 29.4459 20.7697 29.1595V20.5188C20.7697 20.2323 20.8993 19.9576 21.1301 19.7551C21.3609 19.5525 21.6738 19.4387 22.0002 19.4387C22.3265 19.4387 22.6395 19.5525 22.8703 19.7551C23.1011 19.9576 23.2307 20.2323 23.2307 20.5188V29.1595C23.2307 29.4459 23.1011 29.7207 22.8703 29.9232C22.6395 30.1258 22.3265 30.2396 22.0002 30.2396ZM28.9731 29.1595C28.9731 29.4459 29.1027 29.7207 29.3335 29.9232C29.5643 30.1258 29.8772 30.2396 30.2036 30.2396C30.5299 30.2396 30.8429 30.1258 31.0737 29.9232C31.3045 29.7207 31.4341 29.4459 31.4341 29.1595V20.5188C31.4341 20.2323 31.3045 19.9576 31.0737 19.7551C30.8429 19.5525 30.5299 19.4387 30.2036 19.4387C29.8772 19.4387 29.5643 19.5525 29.3335 19.7551C29.1027 19.9576 28.9731 20.2323 28.9731 20.5188V29.1595Z" fill="black"/>
</g>
</g>
</svg>
