<svg width="224" height="44" viewBox="0 0 224 44" fill="none" xmlns="http://www.w3.org/2000/svg">
<rect x="0.5" y="0.5" width="223" height="43" rx="19.5" fill="#EC121F" stroke="#EC121F"/>
<path d="M90.4799 24.3047L90.5775 26.6582C89.4707 26.9512 88.4584 27.0977 87.5404 27.0977C86.4987 27.0977 85.5352 26.9609 84.6498 26.6875C83.7644 26.4141 82.9831 25.9974 82.306 25.4375C81.6355 24.8711 81.1179 24.1712 80.7533 23.3379C80.3952 22.5046 80.2162 21.5443 80.2162 20.457C80.2162 19.3698 80.3789 18.3965 80.7045 17.5371C81.03 16.6777 81.502 15.9518 82.1205 15.3594C82.7455 14.7604 83.4942 14.3112 84.3666 14.0117C85.239 13.7122 86.2155 13.5625 87.2963 13.5625C88.2598 13.5625 89.334 13.7546 90.5189 14.1387L90.3041 16.4238C89.4252 15.9421 88.4714 15.7012 87.4427 15.7012C86.5704 15.7012 85.8021 15.89 85.1381 16.2676C84.474 16.6387 83.9629 17.1595 83.6049 17.8301C83.2533 18.5007 83.0775 19.2721 83.0775 20.1445C83.0775 21.0495 83.2631 21.8633 83.6342 22.5859C84.0118 23.3086 84.5456 23.8685 85.2357 24.2656C85.9258 24.6628 86.7331 24.8613 87.6576 24.8613C88.5365 24.8613 89.4773 24.6758 90.4799 24.3047ZM101.605 22.1367C101.605 22.8984 101.481 23.5983 101.234 24.2363C100.987 24.8678 100.635 25.4082 100.179 25.8574C99.7301 26.3001 99.1897 26.6452 98.5582 26.8926C97.9267 27.14 97.2236 27.2637 96.4488 27.2637C95.4267 27.2637 94.5282 27.0423 93.7535 26.5996C92.9788 26.1569 92.3798 25.5319 91.9566 24.7246C91.54 23.9173 91.3316 23.0091 91.3316 22C91.3316 20.9909 91.5465 20.0957 91.9762 19.3145C92.4058 18.5332 93.0081 17.9277 93.7828 17.498C94.564 17.0618 95.4592 16.8438 96.4683 16.8438C97.2496 16.8438 97.956 16.974 98.5875 17.2344C99.2255 17.4948 99.7691 17.8659 100.218 18.3477C100.668 18.8229 101.009 19.3828 101.244 20.0273C101.485 20.6719 101.605 21.375 101.605 22.1367ZM98.9488 22.0781C98.9488 21.5443 98.8609 21.0202 98.6851 20.5059C98.5159 19.9915 98.2424 19.5684 97.8648 19.2363C97.4872 18.9043 97.0217 18.7383 96.4683 18.7383C95.941 18.7383 95.4853 18.901 95.1012 19.2266C94.7236 19.5521 94.4436 19.9688 94.2613 20.4766C94.079 20.9779 93.9879 21.4857 93.9879 22C93.9879 22.5534 94.0725 23.0872 94.2418 23.6016C94.4176 24.1159 94.6943 24.5391 95.0719 24.8711C95.4495 25.1966 95.928 25.3594 96.5074 25.3594C96.9176 25.3594 97.2789 25.2617 97.5914 25.0664C97.9039 24.8646 98.1578 24.6107 98.3531 24.3047C98.5484 23.9922 98.6949 23.6439 98.7926 23.2598C98.8967 22.8691 98.9488 22.4753 98.9488 22.0781ZM105.66 17.0977L105.719 18.6797C106.513 17.5208 107.626 16.9414 109.058 16.9414C110.387 16.9414 111.282 17.3353 111.744 18.123C112.206 18.9043 112.437 20.0046 112.437 21.4238V27H109.879V22.0195C109.879 21.1406 109.765 20.4277 109.537 19.8809C109.316 19.334 108.831 19.0605 108.082 19.0605C107.281 19.0605 106.718 19.3828 106.392 20.0273C106.067 20.6654 105.904 21.4238 105.904 22.3027V27H103.336V20.7012C103.336 19.3014 103.303 18.1003 103.238 17.0977H105.66ZM114.09 26.7363L114.207 24.5781C115.118 25.0469 115.958 25.2812 116.727 25.2812C117.15 25.2812 117.55 25.1901 117.928 25.0078C118.305 24.8255 118.494 24.5423 118.494 24.1582C118.494 23.8262 118.224 23.543 117.684 23.3086C117.143 23.0742 116.6 22.8431 116.053 22.6152C115.512 22.3874 115.044 22.0684 114.646 21.6582C114.249 21.248 114.051 20.6751 114.051 19.9395C114.051 19.2363 114.256 18.6602 114.666 18.2109C115.083 17.7617 115.61 17.4362 116.248 17.2344C116.886 17.026 117.547 16.9219 118.23 16.9219C118.953 16.9219 119.767 17.0488 120.672 17.3027L120.486 19.2168C119.692 18.9629 118.992 18.8359 118.387 18.8359C117.944 18.8359 117.534 18.9108 117.156 19.0605C116.779 19.2103 116.59 19.4707 116.59 19.8418C116.59 20.1608 116.847 20.4277 117.361 20.6426C117.882 20.8509 118.426 21.0625 118.992 21.2773C119.565 21.4857 120.053 21.8014 120.457 22.2246C120.867 22.6413 121.072 23.2402 121.072 24.0215C121.072 24.7311 120.874 25.3236 120.477 25.7988C120.086 26.2741 119.578 26.6224 118.953 26.8438C118.328 27.0651 117.667 27.1758 116.971 27.1758C116.176 27.1758 115.216 27.0293 114.09 26.7363ZM131.631 17.0977V23.1426C131.644 23.4225 131.657 23.8555 131.67 24.4414C131.69 25.0273 131.706 25.4961 131.719 25.8477C131.732 26.1992 131.752 26.5833 131.778 27H129.356L129.278 25.4766C129.05 25.8346 128.773 26.1374 128.447 26.3848C128.128 26.6322 127.767 26.8242 127.363 26.9609C126.96 27.0911 126.556 27.1562 126.153 27.1562C125.235 27.1562 124.518 26.9674 124.004 26.5898C123.49 26.2122 123.135 25.6947 122.94 25.0371C122.751 24.3796 122.656 23.5951 122.656 22.6836V17.0977H125.215V21.8633C125.215 22.4818 125.244 23.0059 125.303 23.4355C125.368 23.8587 125.534 24.2298 125.801 24.5488C126.068 24.8613 126.472 25.0176 127.012 25.0176C127.787 25.0176 128.324 24.6921 128.623 24.041C128.923 23.3835 129.072 22.6152 129.072 21.7363V17.0977H131.631ZM136.487 27H133.928V12.5957H136.487V27ZM144.214 24.8809L144.301 26.8828C143.65 27.013 143.074 27.0781 142.573 27.0781C141.733 27.0781 141.069 26.9251 140.581 26.6191C140.092 26.3066 139.751 25.8672 139.555 25.3008C139.36 24.7279 139.262 24.028 139.262 23.2012V19.0605H137.397V17.1562H139.301V15.1445L141.86 14.3047V17.1562H144.116V19.0605H141.86V22.6641C141.86 23.4323 141.941 24.0182 142.104 24.4219C142.273 24.819 142.684 25.0176 143.335 25.0176C143.575 25.0176 143.868 24.972 144.214 24.8809Z" fill="white"/>
</svg>
