<svg width="44" height="44" viewBox="0 0 44 44" fill="none" xmlns="http://www.w3.org/2000/svg">
<g id="Frame 1171275191">
<path id="Vector" d="M20.4911 8.53049C20.9128 8.18797 21.4474 8 22 8C22.5526 8 23.0872 8.18797 23.5089 8.53049L35.1756 18.0247C35.4339 18.2348 35.6415 18.4963 35.7838 18.7911C35.9262 19.0858 36 19.4068 36 19.7317V33.7619C36 34.3554 35.7542 34.9247 35.3166 35.3445C34.879 35.7642 34.2855 36 33.6667 36H24.7222C24.4128 36 24.1161 35.8821 23.8973 35.6722C23.6785 35.4624 23.5556 35.1777 23.5556 34.8809V25.5553H20.4444V34.8809C20.4444 35.1777 20.3215 35.4624 20.1027 35.6722C19.8839 35.8821 19.5872 36 19.2778 36H10.3333C9.71449 36 9.121 35.7642 8.68342 35.3445C8.24583 34.9247 8 34.3554 8 33.7619V19.7317C8 19.0751 8.30178 18.45 8.82444 18.0247L20.4911 8.53049ZM22 10.2374L10.3333 19.7317V33.7619H18.1111V24.4362C18.1111 24.1394 18.234 23.8548 18.4528 23.6449C18.6716 23.4351 18.9684 23.3172 19.2778 23.3172H24.7222C25.0316 23.3172 25.3284 23.4351 25.5472 23.6449C25.766 23.8548 25.8889 24.1394 25.8889 24.4362V33.7619H33.6667V19.7317L22 10.2374Z" fill="black"/>
</g>
</svg>
