<svg width="390" height="47" viewBox="0 0 390 47" fill="none" xmlns="http://www.w3.org/2000/svg">
<g clip-path="url(#clip0_9_955)">
<path d="M117.768 -2H272.184V13C272.184 22.3888 264.572 30 255.184 30H134.768C125.379 30 117.768 22.3888 117.768 13V-2Z" fill="black"/>
<path d="M118 -2H113C113 -2 113 -2 113 -2C115.651 -2 117.799 0.148747 117.799 2.79934C117.799 2.86656 117.798 2.93345 117.795 3H118V-2Z" fill="black"/>
<path d="M272 -2H277C277 -2 277 -2 277 -2C274.349 -2 272.201 0.148747 272.201 2.79934C272.201 2.86656 272.202 2.93345 272.205 3H272V-2Z" fill="black"/>
<path d="M41.8786 19.7231C44.4352 19.7231 46.6599 21.541 46.6599 25.8574V25.874C46.6599 29.9082 44.842 32.2988 41.8288 32.2988C39.6291 32.2988 37.9855 30.9956 37.6037 29.1611L37.5871 29.0698H39.6955L39.7204 29.1528C40.0358 29.9912 40.7746 30.5391 41.8288 30.5391C43.7297 30.5391 44.5349 28.6797 44.6262 26.3887C44.6262 26.2974 44.6345 26.2061 44.6345 26.1147H44.4684C44.0285 27.061 42.9826 27.8994 41.3391 27.8994C39.0397 27.8994 37.4294 26.2227 37.4294 23.9482V23.9316C37.4294 21.4995 39.2805 19.7231 41.8786 19.7231ZM41.8703 26.2559C43.2233 26.2559 44.2609 25.2764 44.2609 23.9233V23.9067C44.2609 22.5371 43.2233 21.4663 41.8952 21.4663C40.5754 21.4663 39.5212 22.5205 39.5212 23.8569V23.8735C39.5212 25.2598 40.509 26.2559 41.8703 26.2559ZM50.0204 24.2388C49.265 24.2388 48.7006 23.6577 48.7006 22.9272C48.7006 22.1885 49.265 21.6157 50.0204 21.6157C50.7841 21.6157 51.3402 22.1885 51.3402 22.9272C51.3402 23.6577 50.7841 24.2388 50.0204 24.2388ZM50.0204 30.3979C49.265 30.3979 48.7006 29.8252 48.7006 29.0864C48.7006 28.3477 49.265 27.7749 50.0204 27.7749C50.7841 27.7749 51.3402 28.3477 51.3402 29.0864C51.3402 29.8252 50.7841 30.3979 50.0204 30.3979ZM59.1915 32V29.7007H53.3312V27.9492C54.8834 25.2515 56.5851 22.4956 58.212 20.022H61.2418V27.9326H62.8522V29.7007H61.2418V32H59.1915ZM55.3233 27.9824H59.2247V21.7319H59.1002C57.8717 23.6079 56.4855 25.8242 55.3233 27.8579V27.9824ZM67.408 32V22.1304H67.2669L64.2869 24.2388V22.2217L67.4163 20.022H69.5496V32H67.408Z" fill="#010101"/>
<path opacity="0.35" d="M336.528 23C336.528 21.0822 338.082 19.5275 340 19.5275H357C358.918 19.5275 360.472 21.0822 360.472 23V28C360.472 29.9178 358.918 31.4725 357 31.4725H340C338.082 31.4725 336.528 29.9178 336.528 28V23Z" stroke="black" stroke-width="1.05509"/>
<path opacity="0.4" d="M362 24V28.2203C362.849 27.8629 363.401 27.0314 363.401 26.1102C363.401 25.1889 362.849 24.3574 362 24Z" fill="black"/>
<path d="M338 23C338 21.8954 338.895 21 340 21H357C358.105 21 359 21.8954 359 23V28C359 29.1046 358.105 30 357 30H340C338.895 30 338 29.1046 338 28V23Z" fill="black"/>
<path fill-rule="evenodd" clip-rule="evenodd" d="M320.5 22.5875C322.967 22.5876 325.339 23.5551 327.127 25.2898C327.261 25.4237 327.477 25.4221 327.609 25.286L328.896 23.9605C328.963 23.8915 329.001 23.798 329 23.7008C328.999 23.6035 328.961 23.5105 328.893 23.4423C324.201 18.8526 316.799 18.8526 312.107 23.4423C312.039 23.5105 312.001 23.6034 312 23.7007C311.999 23.7979 312.037 23.8914 312.104 23.9605L313.391 25.286C313.523 25.4223 313.739 25.424 313.873 25.2898C315.661 23.5549 318.034 22.5875 320.5 22.5875ZM320.536 26.6724C321.891 26.6723 323.198 27.1864 324.203 28.115C324.338 28.2467 324.552 28.2439 324.685 28.1085L325.97 26.7829C326.038 26.7134 326.075 26.6191 326.074 26.5211C326.073 26.4231 326.034 26.3295 325.965 26.2614C322.906 23.3568 318.169 23.3568 315.109 26.2614C315.04 26.3295 315.001 26.4231 315 26.5212C314.999 26.6192 315.037 26.7135 315.105 26.7829L316.39 28.1085C316.522 28.2439 316.736 28.2467 316.872 28.115C317.876 27.1871 319.182 26.6729 320.536 26.6724ZM323.15 29.3427C323.152 29.441 323.114 29.5357 323.045 29.6046L320.822 31.8948C320.756 31.9621 320.668 32 320.575 32C320.482 32 320.393 31.9621 320.328 31.8948L318.105 29.6046C318.036 29.5357 317.998 29.4409 318 29.3426C318.002 29.2443 318.044 29.1512 318.115 29.0853C319.535 27.8595 321.615 27.8595 323.035 29.0853C323.106 29.1513 323.148 29.2444 323.15 29.3427Z" fill="black"/>
<path d="M296 23C296 22.4477 296.448 22 297 22H298C298.552 22 299 22.4477 299 23V31C299 31.5523 298.552 32 298 32H297C296.448 32 296 31.5523 296 31V23Z" fill="black"/>
<path d="M301 21C301 20.4477 301.448 20 302 20H303C303.552 20 304 20.4477 304 21V31C304 31.5523 303.552 32 303 32H302C301.448 32 301 31.5523 301 31V21Z" fill="black"/>
<path d="M291 26.5C291 25.9477 291.448 25.5 292 25.5H293C293.552 25.5 294 25.9477 294 26.5V31C294 31.5523 293.552 32 293 32H292C291.448 32 291 31.5523 291 31V26.5Z" fill="black"/>
<path d="M286 29C286 28.4477 286.448 28 287 28H288C288.552 28 289 28.4477 289 29V31C289 31.5523 288.552 32 288 32H287C286.448 32 286 31.5523 286 31V29Z" fill="black"/>
</g>
<defs>
<clipPath id="clip0_9_955">
<rect width="390" height="47" fill="white"/>
</clipPath>
</defs>
</svg>
