<svg width="44" height="44" viewBox="0 0 44 44" fill="none" xmlns="http://www.w3.org/2000/svg">
<g id="Frame 1171275193">
<path id="Vector" d="M12.3351 14.2367H7.12404C6.52525 14.2367 5.92646 14.7546 6.00737 15.5961L8.53201 31.7635C8.53201 31.7635 11.526 19.8524 12.1086 16.9879C12.2866 16.1302 13.0958 15.8551 13.6946 15.8551H22.0453C22.0453 15.8551 20.9124 12.4889 20.7991 12.1167C20.6049 11.4046 20.2489 11 19.5368 11H14.1801C13.5975 11 13.0472 11.3722 12.8854 12.0357C12.7397 12.6831 12.3351 14.2367 12.3351 14.2367ZM20.2327 14.2367H13.7593C13.7593 14.2367 14.439 12.6184 15.1673 12.6184H18.6144C19.3912 12.6184 20.2327 14.2367 20.2327 14.2367ZM10.1827 32.4432C9.68104 33.2038 8.95278 33.657 8.1436 33.657H33.6003C34.4742 33.657 35.0892 33.1553 35.2672 32.3137C35.9793 28.7695 37.9861 18.6548 37.9861 18.6548C38.0993 17.8456 37.5005 17.4734 36.9827 17.4734H31.7554V15.0944C31.7554 14.8355 31.3346 14.2367 30.6873 14.2367H24.6023C23.7607 14.2367 23.1943 15.1754 23.1943 15.1754L22.0453 17.4734H14.9083C14.3904 17.4734 13.8888 17.7809 13.7917 18.2826C13.7917 18.2826 11.2185 29.1256 11.0081 30.1451C10.8948 30.7439 10.6521 31.7473 10.1827 32.4432ZM30.752 17.4734H23.6636C23.6636 17.4734 24.6023 15.8551 25.4924 15.8551H29.1984C30.3474 15.8551 30.752 17.4734 30.752 17.4734Z" fill="#EC121F"/>
</g>
</svg>
