<svg width="44" height="44" viewBox="0 0 44 44" fill="none" xmlns="http://www.w3.org/2000/svg">
<g id="Frame 1171275194">
<path id="Vector" d="M16.7778 14.2222C16.7778 12.8372 17.328 11.5089 18.3073 10.5296C19.2867 9.5502 20.615 9 22 9C23.385 9 24.7133 9.5502 25.6927 10.5296C26.672 11.5089 27.2222 12.8372 27.2222 14.2222C27.2222 15.6072 26.672 16.9355 25.6927 17.9149C24.7133 18.8942 23.385 19.4444 22 19.4444C20.615 19.4444 19.2867 18.8942 18.3073 17.9149C17.328 16.9355 16.7778 15.6072 16.7778 14.2222ZM10.9852 26.5407C12.2562 25.2696 13.9802 24.5556 15.7778 24.5556H28.2222C30.0198 24.5556 31.7438 25.2696 33.0148 26.5407C34.2859 27.8118 35 29.5358 35 31.3333C35 32.3058 34.6137 33.2384 33.9261 33.9261C33.2384 34.6137 32.3058 35 31.3333 35H12.6667C11.6942 35 10.7616 34.6137 10.0739 33.9261C9.38631 33.2384 9 32.3058 9 31.3333C9 29.5358 9.71409 27.8118 10.9852 26.5407Z" stroke="black" stroke-width="2"/>
</g>
</svg>
